<?xml version="1.0" encoding="utf-8"?>
<!-- Generator: Adobe Illustrator 23.0.4, SVG Export Plug-In . SVG Version: 6.00 Build 0)  -->
<svg version="1.1" id="Layer_1" xmlns="http://www.w3.org/2000/svg" xmlns:xlink="http://www.w3.org/1999/xlink" x="0px" y="0px"
	 viewBox="0 0 355.7 236.7" style="enable-background:new 0 0 355.7 236.7;" xml:space="preserve">
<style type="text/css">
	.st0{fill:#FFFFFF;}
</style>
<title>adidas-seeklogo.com</title>
<path class="st0" d="M354,192.4h-15.5c-0.5-2.6-1.2-4.4-2.2-5.4c-1.7-1.7-4.5-2.5-8.4-2.5s-6.5,0.6-8,1.9c-1.2,1-1.8,2.5-1.7,4
	c0,2.4,3.3,4.2,9.7,5.7c5.4,1.1,10.7,2.5,16,4.1c0.8,0.3,1.6,0.6,2.1,0.9c6.6,3.1,9.8,7.8,9.8,14.1c0,7.7-3.2,13.3-9.6,16.9
	c-0.8,0.4-1.6,0.8-2.4,1.2c-4.6,1.9-9.4,2.8-14.3,2.7c-8.1,0-14.6-1.4-19.6-4.3c-2.9-1.6-5.3-4-7-6.9c-1.6-3-2.4-6.3-2.3-9.7h16.3
	c-0.1,2.5,1,4.9,3,6.5c2,1.5,5.4,2.4,10.1,2.4c3.6,0,6.2-0.8,8-2.2c1.3-0.9,2-2.4,2-4c0-2.5-3.2-4.5-9.6-5.9c-9.5-2-15.5-3.7-18-4.9
	c-6.5-3-9.7-7.8-9.7-14.3c-0.1-4.9,1.7-9.7,5.1-13.3c4.3-4.5,10.7-6.8,19.2-6.8c7,0,12.6,1,16.9,3c0.4,0.1,0.7,0.3,1,0.5
	c2.9,1.5,5.3,3.8,6.9,6.6C353.3,185.6,354.1,188.9,354,192.4z"/>
<path class="st0" d="M345.7,154.4c0-0.3-0.1-0.6-0.2-0.8c-0.2-0.3-0.4-0.4-0.7-0.5c-0.3-0.1-0.7-0.1-1-0.2h-2.5v3h2.5
	c0.5,0,1-0.1,1.4-0.4C345.5,155.2,345.7,154.8,345.7,154.4z M347,152.8c0.3,0.4,0.5,0.9,0.5,1.4c0,0.7-0.3,1.4-0.8,1.9
	c-0.6,0.6-1.3,0.9-2.1,0.9c0.3,0.1,0.6,0.3,0.9,0.5l1.5,2l1.2,2h-1.9l-0.9-1.6c-0.4-0.8-0.9-1.5-1.5-2.1c-0.1-0.1-0.1-0.1-0.2-0.2
	l-1.3-0.4h-1v4.3h-1.6v-10.1h3.5c0.2,0,0.4,0,0.6,0c0.6,0,1.3,0.1,1.9,0.3C346.2,152,346.7,152.3,347,152.8L347,152.8z"/>
<path class="st0" d="M351.5,156.5c0-1.4-0.3-2.7-1-3.9c-0.7-1.2-1.7-2.2-2.9-2.9c-1.2-0.6-2.5-1-3.8-1l0,0c-1.3,0-2.6,0.4-3.8,1
	c-1.2,0.7-2.2,1.7-2.9,2.9c-0.7,1.2-1.1,2.5-1.1,3.9c0,1.4,0.4,2.7,1.1,3.9c0.6,1.2,1.6,2.2,2.8,2.8c1.2,0.7,2.5,1,3.9,1l0,0
	c1.4,0,2.7-0.3,3.9-1c1.2-0.7,2.2-1.6,2.8-2.8C351.1,159.1,351.5,157.8,351.5,156.5z M353.1,156.5c0,1.6-0.4,3.2-1.2,4.6
	c-0.8,1.5-2,2.7-3.4,3.4c-1.4,0.8-3,1.3-4.6,1.2l0,0c-1.6,0-3.2-0.4-4.6-1.2c-1.5-0.8-2.7-2-3.4-3.4c-0.8-1.4-1.2-3-1.2-4.6
	c0-1.7,0.4-3.3,1.2-4.7c0.8-1.5,2-2.6,3.5-3.4c1.4-0.8,3-1.2,4.5-1.2l0,0c1.6,0,3.2,0.4,4.5,1.2c1.5,0.8,2.7,2,3.5,3.4
	C352.7,153.2,353.1,154.8,353.1,156.5z"/>
<polygon class="st0" points="262,80.8 306,154.1 262,154.1 235.4,154.1 193.4,84.1 161.6,31.1 193.4,12 213.4,0 "/>
<path class="st0" d="M293.9,204.9v30h-14.6v-3.3c-5.1,3.3-11,5.1-17.1,5.1H262c-17.6-0.3-31.5-14.8-31.2-32.4
	c0.3-17.1,14.1-30.9,31.2-31.2h0.2c6.1,0,12,1.8,17.1,5.1v-3.5h14.6V204.9z M279.3,208.2v-6.6c-1.6-8.2-8.8-14.1-17.1-14.1H262
	c-9.7,0.2-17.3,8.2-17.1,17.9c0.2,9.3,7.7,16.8,17.1,17.1h0.2C270.5,222.4,277.7,216.4,279.3,208.2L279.3,208.2z"/>
<path class="st0" d="M225.3,204.9v30h-14.6v-3.3c-5.1,3.3-11,5.1-17.1,5.1h-0.2c-17.6-0.3-31.5-14.8-31.2-32.4
	c0.3-17.1,14.1-30.9,31.2-31.2h0.2c6.1,0,12,1.8,17.1,5.1v-24.1h14.6L225.3,204.9z M210.7,208.2v-6.6c-1.6-8.2-8.8-14.1-17.1-14.1
	h-0.2c-9.7,0.2-17.3,8.2-17.1,17.9c0.2,9.3,7.7,16.8,17.1,17.1h0.2C201.9,222.4,209.1,216.4,210.7,208.2L210.7,208.2z"/>
<polygon class="st0" points="193.4,125.2 210.6,154.1 193.4,154.1 140.1,154.1 100.9,88.9 99.2,86 100.9,85 151.1,54.8 "/>
<rect x="140.1" y="173.1" class="st0" width="15.9" height="61.8"/>
<rect x="140.1" y="154.4" class="st0" width="15.9" height="14"/>
<path class="st0" d="M132.9,204.9v30h-14.6v-3.3c-5.1,3.3-11.1,5.1-17.2,5.1h-0.2c-17.6-0.3-31.5-14.8-31.2-32.4
	c0.3-17.1,14.1-30.9,31.2-31.2h0.2c6.1,0,12.1,1.8,17.2,5.1v-24.1h14.7V204.9z M118.3,208.2v-6.6c-1.6-8.2-8.8-14.1-17.2-14.1h-0.2
	c-9.7,0.2-17.3,8.2-17.1,17.9c0.2,9.3,7.7,16.8,17.1,17.1h0.2C109.4,222.4,116.6,216.5,118.3,208.2L118.3,208.2z"/>
<polygon class="st0" points="100.9,130 115.3,154.1 100.9,154.1 44.8,154.1 36.8,140.8 88.7,109.7 "/>
<path class="st0" d="M63.5,204.9v30H48.9v-3.3c-5.1,3.3-11.1,5.1-17.2,5.1h-0.2C14,236.4,0,221.9,0.3,204.3
	c0.3-17.1,14.1-30.9,31.2-31.2h0.2c6.1,0,12.1,1.8,17.2,5.1v-3.5h14.6L63.5,204.9z M48.9,208.2v-6.6c-1.6-8.2-8.8-14.1-17.2-14.1
	h-0.2c-9.7,0.2-17.3,8.2-17.1,17.9c0.2,9.3,7.7,16.8,17.1,17.1h0.2C40.1,222.4,47.3,216.4,48.9,208.2L48.9,208.2z"/>
</svg>
