<?xml version="1.0" encoding="UTF-8"?>
<svg width="200px" height="108px" viewBox="0 0 200 108" version="1.1" xmlns="http://www.w3.org/2000/svg" xmlns:xlink="http://www.w3.org/1999/xlink">
    <!-- Generator: Sketch 56.3 (81716) - https://sketch.com -->
    <title>AIG_white</title>
    <desc>Created with Sketch.</desc>
    <g id="Unplanned-Disruptions" stroke="none" stroke-width="1" fill="none" fill-rule="evenodd">
        <g id="AIG_white" fill="#FFFFFF" fill-rule="nonzero">
            <path d="M51.64,40.39 L60.64,61 L42.22,61 L51.64,40.39 Z M50,23.7 L21.8,84.33 L31.65,84.33 L38.41,69.6 L64.41,69.6 L70.77,84.33 L80.77,84.33 L53.52,23.7 L50,23.7 Z" id="Shape"></path>
            <rect id="Rectangle" x="90.26" y="23.7" width="9.15" height="60.63"></rect>
            <path d="M147.4,52.76 L172.4,52.76 L172.4,54.76 C172.467465,58.8476355 171.924828,62.9224713 170.79,66.85 C169.69212,70.2283232 167.908174,73.3434192 165.55,76 C160.170194,82.2173765 152.289142,85.6992751 144.07,85.49 C135.84214,85.5987139 127.941571,82.271777 122.27,76.31 C116.354883,70.4709356 113.078962,62.470754 113.2,54.16 C113.173165,45.7553386 116.506204,37.6884772 122.457672,31.753911 C128.409141,25.8193447 136.485449,22.5092621 144.89,22.56 C149.473232,22.5243026 154.006691,23.5116196 158.16,25.45 C162.606644,27.7865076 166.545922,30.9814355 169.75,34.85 L163.23,41.09 C158.25,34.4566667 152.19,31.1433333 145.05,31.15 C138.978276,31.009455 133.125046,33.4174751 128.91,37.79 C124.579699,42.1026092 122.220736,48.0108711 122.39,54.12 C122.216662,60.4864947 124.880115,66.6010807 129.66,70.81 C134.186667,74.87 139.093333,76.9 144.38,76.9 C148.845658,76.9119209 153.162238,75.2940921 156.52,72.35 C159.917968,69.6394723 162.080749,65.6743735 162.52,61.35 L147.4,61.35 L147.4,52.76 Z" id="Path"></path>
            <path d="M8.31,8.33 L191.4,8.33 L191.4,99.67 L8.31,99.67 L8.31,8.33 Z M0,108 L199.71,108 L199.71,0 L0,0 L0,108 Z" id="Shape"></path>
        </g>
    </g>
</svg>